<?xml version="1.0" encoding="UTF-8"?>
<svg width="22px" height="22px" viewBox="0 0 22 22" version="1.1" xmlns="http://www.w3.org/2000/svg" xmlns:xlink="http://www.w3.org/1999/xlink">
    <title>Shape</title>
    <g id="Page-1" stroke="none" stroke-width="1" fill="none" fill-rule="evenodd">
        <g id="Selected-Car-Page-(mobile)" transform="translate(-19.000000, -1852.000000)" fill="#121212" fill-rule="nonzero" stroke="#121212" stroke-width="0.5">
            <g id="Car" transform="translate(20.000000, 1319.000000)">
                <g id="Group-15" transform="translate(0.000000, 368.000000)">
                    <path d="M10,166 C4.48362834,166 0,170.483628 0,176 C0,181.516372 4.48362834,186 10,186 C15.5163717,186 20,181.516372 20,176 C20,170.482728 15.5163717,166 10,166 Z M10,166.387943 C15.2972571,166.387943 19.6122146,170.702675 19.6122146,176.000158 C19.6122146,181.29764 15.2974823,185.612372 10,185.612372 C4.70251768,185.612372 0.387785434,181.29764 0.387785434,176.000158 C0.387785434,170.702675 4.70251768,166.387943 10,166.387943 Z M13.0664775,173.656555 C13.0180967,173.656555 12.9697136,173.674149 12.9301288,173.714613 L8.74555916,177.878014 L7.07506418,176.197858 C6.99501419,176.117808 6.87801874,176.119567 6.79884025,176.196979 C6.72494933,176.269991 6.72406882,176.392265 6.79971986,176.469667 L8.60391298,178.286178 C8.6452565,178.326644 8.68836103,178.342477 8.74026168,178.342477 C8.78688375,178.342477 8.83350583,178.325763 8.8748516,178.28442 L13.1983664,173.986352 C13.2784164,173.906302 13.2766577,173.791065 13.2010055,173.711884 C13.1605402,173.673178 13.1139182,173.655586 13.0664156,173.655586 L13.0664775,173.656555 Z" id="Shape"></path>
                </g>
            </g>
        </g>
    </g>
</svg>