<?xml version="1.0" encoding="UTF-8"?>
<svg width="17px" height="18px" viewBox="0 0 17 18" version="1.1" xmlns="http://www.w3.org/2000/svg" xmlns:xlink="http://www.w3.org/1999/xlink">
    <title>np_time_3998399_000000</title>
    <g id="Booking-Form-Improvements-v2" stroke="none" stroke-width="1" fill="none" fill-rule="evenodd">
        <g id="Booking-Form-Step-3-(mobile)" transform="translate(-140.000000, -300.000000)" fill="#FFFFFF" fill-rule="nonzero">
            <g id="Arrow-Button" transform="translate(20.000000, 284.000000)">
                <g id="np_time_3998399_000000" transform="translate(120.000000, 16.000000)">
                    <path d="M8.49946864,18 C13.1869992,18 17.0000002,14.3909266 17.0000002,9.95409466 C17.0000002,7.6629617 15.9775743,5.5973609 14.3488573,4.13114571 L15.3501512,2.99512581 C15.6221043,2.68679452 15.578855,2.22746425 15.252135,1.9700791 C14.9235036,1.71267067 14.4401381,1.75542538 14.1701285,2.06285324 L13.1457597,3.2252543 C12.0108878,2.52036733 10.6905565,2.06739369 9.26830729,1.94552343 L9.26830729,1.45527155 L9.84389816,1.45527155 C10.2686418,1.45527155 10.6126482,1.12966327 10.6126482,0.727635775 C10.6126482,0.325608278 10.2686418,0 9.84389816,0 L7.15511784,0 C6.73037419,0 6.38636775,0.325608278 6.38636775,0.727635775 C6.38636775,1.12966327 6.73037419,1.45527155 7.15511784,1.45527155 L7.73070871,1.45527155 L7.73070871,1.94552343 C6.30853334,2.067403 4.98830039,2.52127542 3.85424026,3.22434621 L2.82987154,2.06285324 C2.5588779,1.75452195 2.07553705,1.71267998 1.74786501,1.96917101 C1.42115237,2.22748753 1.37694616,2.68588643 1.64984876,2.99512581 L2.65114267,4.13114571 C1.02235188,5.59824571 1.8159111e-07,7.66291513 1.8159111e-07,9.95409466 C-0.000960758862,14.3909266 3.81201681,18 8.49954736,18 L8.49946864,18 Z M8.49946864,3.3636937 C12.3382991,3.3636937 15.4624995,6.31964128 15.4624995,9.9543275 C15.4624995,13.5897123 12.3385451,16.5449613 8.49946864,16.5449613 C4.66039219,16.5449613 1.53643782,13.5890137 1.53643782,9.9543275 C1.53643782,6.31964128 4.66039219,3.3636937 8.49946864,3.3636937 Z" id="Shape"></path>
                    <path d="M10.4300769,12.8110838 C10.5799844,12.9529716 10.7769861,13.0239166 10.9739583,13.0239166 C11.1709502,13.0239166 11.367952,12.9529716 11.5178398,12.8110838 C11.818624,12.5272942 11.818624,12.0670791 11.5178398,11.7823814 L9.26829253,9.6531445 L9.26829253,6.4424662 C9.26829253,6.0404387 8.92428609,5.71483042 8.49954244,5.71483042 C8.07479879,5.71483042 7.73079235,6.0404387 7.73079235,6.4424662 L7.73079235,9.95514245 C7.73079235,10.1479671 7.81150988,10.3335131 7.95565114,10.469936 L10.4300769,12.8110838 Z" id="Path"></path>
                </g>
            </g>
        </g>
    </g>
</svg>